# xmcd
#
# Track frame offsets: 
#        150
#        20754
#        48502
#        71060
#        96537
#        113797
#        137648
#        154213
#        171471
#        191770
#        207723
#        235333
#        267904
#        281259
#
# Disc length: 4005 seconds
#
# Revision: 0
# Processed by: cddbd v1.5.2PL0 Copyright (c) Steve Scherf et al.
# Submitted via: ExactAudioCopy v1.3
#
DISCID=dd0fa30e
DTITLE=Mick Pini - Into The Distance
DYEAR=2019
DGENRE=Blues Rock
TTITLE0=Hard Cash
TTITLE1=One Glass Of Water
TTITLE2=Into The Distance
TTITLE3=I Need A Good Woman
TTITLE4=After You're Gone
TTITLE5=Something On My Mind
TTITLE6=Blues In G
TTITLE7=I'm Back
TTITLE8=The Good Times, The Bad Times And The Tears
TTITLE9=Snowy Wood
TTITLE10=Down On The Street
TTITLE11=Too Far Gone
TTITLE12=When Your Time Is Done
TTITLE13=Full Time Lover
EXTD=
EXTT0=
EXTT1=
EXTT2=
EXTT3=
EXTT4=
EXTT5=
EXTT6=
EXTT7=
EXTT8=
EXTT9=
EXTT10=
EXTT11=
EXTT12=
EXTT13=
PLAYORDER=
